<svg id="dm-icons" aria-hidden="true" style="position:absolute;width:0;height:0;overflow:hidden">
<!-- design-md icon kit · inline sprite · zero network · ref ids with the dm-ico class -->
<symbol id="i-check" viewBox="0 0 24 24"><path d="M20 6 9 17l-5-5"/></symbol>
<symbol id="i-check-circle" viewBox="0 0 24 24"><circle cx="12" cy="12" r="9"/><path d="m8.5 12 2.5 2.5 4.5-5"/></symbol>
<symbol id="i-x" viewBox="0 0 24 24"><path d="M18 6 6 18M6 6l12 12"/></symbol>
<symbol id="i-x-circle" viewBox="0 0 24 24"><circle cx="12" cy="12" r="9"/><path d="m15 9-6 6M9 9l6 6"/></symbol>
<symbol id="i-alert" viewBox="0 0 24 24"><path d="M10.3 3.7 1.8 18a2 2 0 0 0 1.7 3h17a2 2 0 0 0 1.7-3L13.7 3.7a2 2 0 0 0-3.4 0Z"/><path d="M12 9v4M12 17h.01"/></symbol>
<symbol id="i-info" viewBox="0 0 24 24"><circle cx="12" cy="12" r="9"/><path d="M12 16v-4M12 8h.01"/></symbol>
<symbol id="i-arrow-right" viewBox="0 0 24 24"><path d="M5 12h14M13 5l7 7-7 7"/></symbol>
<symbol id="i-arrow-up-right" viewBox="0 0 24 24"><path d="M7 17 17 7M8 7h9v9"/></symbol>
<symbol id="i-arrow-up" viewBox="0 0 24 24"><path d="M12 19V5M5 12l7-7 7 7"/></symbol>
<symbol id="i-arrow-down" viewBox="0 0 24 24"><path d="M12 5v14M19 12l-7 7-7-7"/></symbol>
<symbol id="i-chevron-right" viewBox="0 0 24 24"><path d="m9 6 6 6-6 6"/></symbol>
<symbol id="i-chevron-down" viewBox="0 0 24 24"><path d="m6 9 6 6 6-6"/></symbol>
<symbol id="i-plus" viewBox="0 0 24 24"><path d="M12 5v14M5 12h14"/></symbol>
<symbol id="i-minus" viewBox="0 0 24 24"><path d="M5 12h14"/></symbol>
<symbol id="i-user" viewBox="0 0 24 24"><circle cx="12" cy="8" r="4"/><path d="M4 21a8 8 0 0 1 16 0"/></symbol>
<symbol id="i-users" viewBox="0 0 24 24"><circle cx="9" cy="8" r="3.5"/><path d="M3 21a6 6 0 0 1 12 0"/><path d="M16 4.6a3.5 3.5 0 0 1 0 6.8M17.3 21a6 6 0 0 0-3-5.2"/></symbol>
<symbol id="i-dollar" viewBox="0 0 24 24"><circle cx="12" cy="12" r="9"/><path d="M14.6 9.4C14.1 8.5 13 8 12 8c-1.6 0-2.7.9-2.7 2.1 0 3 5.5 1.8 5.5 4.8 0 1.3-1.2 2.2-2.9 2.2-1.3 0-2.5-.6-3-1.5M12 6.4v11.2"/></symbol>
<symbol id="i-calendar" viewBox="0 0 24 24"><rect x="3" y="5" width="18" height="16" rx="2"/><path d="M3 10h18M8 3v4M16 3v4"/></symbol>
<symbol id="i-clock" viewBox="0 0 24 24"><circle cx="12" cy="12" r="9"/><path d="M12 7v5l3.5 2"/></symbol>
<symbol id="i-mail" viewBox="0 0 24 24"><rect x="3" y="5" width="18" height="14" rx="2"/><path d="m3 7 9 6 9-6"/></symbol>
<symbol id="i-phone" viewBox="0 0 24 24"><path d="M6.5 3h3l1.5 5-2.3 1.4a13 13 0 0 0 6 6L16.5 14l5 1.5v3a2 2 0 0 1-2.2 2A18 18 0 0 1 4.5 5.2 2 2 0 0 1 6.5 3Z"/></symbol>
<symbol id="i-message" viewBox="0 0 24 24"><path d="M21 12a8 8 0 0 1-11.5 7.2L4 21l1.8-5.5A8 8 0 1 1 21 12Z"/></symbol>
<symbol id="i-file" viewBox="0 0 24 24"><path d="M14 3v5h5M14 3H7a2 2 0 0 0-2 2v14a2 2 0 0 0 2 2h10a2 2 0 0 0 2-2V8Z"/></symbol>
<symbol id="i-folder" viewBox="0 0 24 24"><path d="M3 7a2 2 0 0 1 2-2h4l2 2.5h8a2 2 0 0 1 2 2V18a2 2 0 0 1-2 2H5a2 2 0 0 1-2-2Z"/></symbol>
<symbol id="i-chart" viewBox="0 0 24 24"><path d="M3 21h18M7 21V10M12 21V4M17 21v-7"/></symbol>
<symbol id="i-trending-up" viewBox="0 0 24 24"><path d="m3 17 6-6 4 4 8-8M15 7h6v6"/></symbol>
<symbol id="i-target" viewBox="0 0 24 24"><circle cx="12" cy="12" r="9"/><circle cx="12" cy="12" r="5"/><circle cx="12" cy="12" r="1"/></symbol>
<symbol id="i-zap" viewBox="0 0 24 24"><path d="M13 2 4 14h7l-1 8 9-12h-7l1-8Z"/></symbol>
<symbol id="i-star" viewBox="0 0 24 24"><path d="m12 3 2.9 5.9 6.5.9-4.7 4.6 1.1 6.5L12 18.8 6.2 21.9l1.1-6.5L2.6 9.8l6.5-.9L12 3Z"/></symbol>
<symbol id="i-shield" viewBox="0 0 24 24"><path d="M12 3 5 6v6c0 4.5 3 7.5 7 9 4-1.5 7-4.5 7-9V6l-7-3Z"/></symbol>
<symbol id="i-lock" viewBox="0 0 24 24"><rect x="4" y="10" width="16" height="11" rx="2"/><path d="M8 10V7a4 4 0 0 1 8 0v3"/></symbol>
<symbol id="i-settings" viewBox="0 0 24 24"><circle cx="12" cy="12" r="3.2"/><path d="M19.4 13.5a1.6 1.6 0 0 0 .3 1.8l.1.1a2 2 0 1 1-2.8 2.8l-.1-.1a1.6 1.6 0 0 0-1.8-.3 1.6 1.6 0 0 0-1 1.5V21a2 2 0 0 1-4 0v-.2a1.6 1.6 0 0 0-1-1.4 1.6 1.6 0 0 0-1.8.3l-.1.1a2 2 0 1 1-2.8-2.8l.1-.1a1.6 1.6 0 0 0 .3-1.8 1.6 1.6 0 0 0-1.4-1H3a2 2 0 0 1 0-4h.2a1.6 1.6 0 0 0 1.4-1 1.6 1.6 0 0 0-.3-1.8l-.1-.1a2 2 0 1 1 2.8-2.8l.1.1a1.6 1.6 0 0 0 1.8.3H9a1.6 1.6 0 0 0 1-1.4V3a2 2 0 0 1 4 0v.2a1.6 1.6 0 0 0 1 1.4 1.6 1.6 0 0 0 1.8-.3l.1-.1a2 2 0 1 1 2.8 2.8l-.1.1a1.6 1.6 0 0 0-.3 1.8V9a1.6 1.6 0 0 0 1.4 1H21a2 2 0 0 1 0 4h-.2a1.6 1.6 0 0 0-1.4 1Z"/></symbol>
<symbol id="i-search" viewBox="0 0 24 24"><circle cx="11" cy="11" r="7"/><path d="m21 21-4.3-4.3"/></symbol>
<symbol id="i-external" viewBox="0 0 24 24"><path d="M15 3h6v6M21 3l-9 9M19 14v5a2 2 0 0 1-2 2H5a2 2 0 0 1-2-2V7a2 2 0 0 1 2-2h5"/></symbol>
<symbol id="i-link" viewBox="0 0 24 24"><path d="M9 15 15 9M10.5 6 12 4.5a4 4 0 0 1 5.7 5.7L16 12M8 12l-1.8 1.8a4 4 0 0 0 5.7 5.7L13.5 18"/></symbol>
<symbol id="i-home" viewBox="0 0 24 24"><path d="m3 11 9-8 9 8M6 10v10h12V10"/></symbol>
<symbol id="i-layers" viewBox="0 0 24 24"><path d="m12 3 9 5-9 5-9-5 9-5Z"/><path d="m3 13 9 5 9-5"/></symbol>
<symbol id="i-package" viewBox="0 0 24 24"><path d="m12 3 8 4.5v9L12 21l-8-4.5v-9L12 3Z"/><path d="m4 7.5 8 4.5 8-4.5M12 12v9"/></symbol>
<symbol id="i-code" viewBox="0 0 24 24"><path d="m8 8-5 4 5 4M16 8l5 4-5 4M14 4l-4 16"/></symbol>
<symbol id="i-terminal" viewBox="0 0 24 24"><path d="m4 7 5 5-5 5M12 17h8"/></symbol>
<symbol id="i-database" viewBox="0 0 24 24"><ellipse cx="12" cy="5" rx="8" ry="3"/><path d="M4 5v14c0 1.7 3.6 3 8 3s8-1.3 8-3V5M4 12c0 1.7 3.6 3 8 3s8-1.3 8-3"/></symbol>
<symbol id="i-server" viewBox="0 0 24 24"><rect x="3" y="4" width="18" height="7" rx="1.5"/><rect x="3" y="13" width="18" height="7" rx="1.5"/><path d="M7 7.5h.01M7 16.5h.01"/></symbol>
<symbol id="i-globe" viewBox="0 0 24 24"><circle cx="12" cy="12" r="9"/><path d="M3 12h18M12 3c2.5 2.5 3.8 5.7 3.8 9s-1.3 6.5-3.8 9c-2.5-2.5-3.8-5.7-3.8-9S9.5 5.5 12 3Z"/></symbol>
<symbol id="i-sparkles" viewBox="0 0 24 24"><path d="M11 3 12.8 7.7 17.5 9.5 12.8 11.3 11 16l-1.8-4.7L4.5 9.5l4.7-1.8L11 3Z"/><path d="m18.5 14 .8 2 2 .8-2 .8-.8 2-.8-2-2-.8 2-.8 .8-2Z"/></symbol>
<symbol id="i-rocket" viewBox="0 0 24 24"><path d="M5 15c-1.5 1.3-2 5-2 5s3.7-.5 5-2a2 2 0 1 0-3-3ZM9 15l-3-3c1-5 5-9 12-9 0 7-4 11-9 12Z"/><circle cx="14.5" cy="9.5" r="1.6"/></symbol>
<symbol id="i-heart" viewBox="0 0 24 24"><path d="M12 20.3 4.2 12.5a4.6 4.6 0 0 1 6.5-6.5l1.3 1.3 1.3-1.3a4.6 4.6 0 0 1 6.5 6.5L12 20.3Z"/></symbol>
<symbol id="i-eye" viewBox="0 0 24 24"><path d="M2 12s3.5-7 10-7 10 7 10 7-3.5 7-10 7-10-7-10-7Z"/><circle cx="12" cy="12" r="3"/></symbol>
<symbol id="i-bell" viewBox="0 0 24 24"><path d="M6 9a6 6 0 0 1 12 0c0 5 2 6 2 6H4s2-1 2-6M10 21a2.5 2.5 0 0 0 4 0"/></symbol>
<symbol id="i-briefcase" viewBox="0 0 24 24"><rect x="3" y="7" width="18" height="13" rx="2"/><path d="M8 7V5a2 2 0 0 1 2-2h4a2 2 0 0 1 2 2v2M3 13h18"/></symbol>
<symbol id="i-play" viewBox="0 0 24 24"><path d="M7 4v16l13-8L7 4Z"/></symbol>
<symbol id="i-flag" viewBox="0 0 24 24"><path d="M5 21V4M5 4h11l-2 4 2 4H5"/></symbol>
<symbol id="i-tag" viewBox="0 0 24 24"><path d="M3 12V5a2 2 0 0 1 2-2h7l9 9-9 9-9-9Z"/><circle cx="8" cy="8" r="1.5"/></symbol>
</svg>
